# xmcd
#
# Track frame offsets:
#	150
#	10250
#	22517
#	33571
#	45856
#	58697
#	70010
#	80710
#	94078
#	106257
#	116269
#	128900
#
# Disc length: 1863 seconds
#
# Revision: 1
# Processed by: cddbd v1.5.2PL0 Copyright (c) Steve Scherf et al.
# Submitted via: audiograbber 1.83.01
#
DISCID=8807450c
DTITLE=Gene Pitney and George Jones - For the First Time Two Great Singers
DYEAR=1965
DGENRE=Country
TTITLE0=I've Got Five Dollars And It's Saturday Night
TTITLE1=I Really Don't Want To Know
TTITLE2=I'm A Fool To Care
TTITLE3=My Shoes Keep Walkin Back To You
TTITLE4=Sweeter Than The Flowers
TTITLE5=Wearing My Heart Away
TTITLE6=One Has My Name
TTITLE7=Things Have Gone To Pieces
TTITLE8=I've Got A New Heartache
TTITLE9=Don't Rob Another Man's Castle
TTITLE10=Wreck On The Highway
TTITLE11=Born To Lose
EXTD=
EXTT0=
EXTT1=
EXTT2=
EXTT3=
EXTT4=
EXTT5=
EXTT6=
EXTT7=
EXTT8=
EXTT9=
EXTT10=
EXTT11=
PLAYORDER=
